<svg id="Layer_1" data-name="Layer 1" xmlns="http://www.w3.org/2000/svg" viewBox="0 0 225.73 123.65"><defs><style>.cls-1{fill:#f57f20;}</style></defs><path class="cls-1" d="M214.63,101.87a10.93,10.93,0,0,1,7.83,3.12,10.2,10.2,0,0,1,3.27,7.66,10.51,10.51,0,0,1-3.27,7.76,10.72,10.72,0,0,1-7.83,3.24,10.41,10.41,0,0,1-7.74-3.24,10.67,10.67,0,0,1-3.15-7.76,10.35,10.35,0,0,1,3.15-7.66A10.61,10.61,0,0,1,214.63,101.87Z"/><path class="cls-1" d="M189.16,101.87A11,11,0,0,1,197,105a10.23,10.23,0,0,1,3.26,7.66,10.54,10.54,0,0,1-3.26,7.76,10.74,10.74,0,0,1-7.84,3.24,10.41,10.41,0,0,1-7.74-3.24,10.71,10.71,0,0,1-3.15-7.76,10.39,10.39,0,0,1,3.15-7.66A10.61,10.61,0,0,1,189.16,101.87Z"/><path class="cls-1" d="M163.69,101.87a11,11,0,0,1,7.84,3.12,10.23,10.23,0,0,1,3.26,7.66,10.54,10.54,0,0,1-3.26,7.76,10.74,10.74,0,0,1-7.84,3.24,10.41,10.41,0,0,1-7.74-3.24,10.7,10.7,0,0,1-3.14-7.76A10.38,10.38,0,0,1,156,105,10.61,10.61,0,0,1,163.69,101.87Z"/><path class="cls-1" d="M138.23,101.87a10.94,10.94,0,0,1,7.83,3.12,10.19,10.19,0,0,1,3.26,7.66,10.5,10.5,0,0,1-3.26,7.76,10.73,10.73,0,0,1-7.83,3.24,10.37,10.37,0,0,1-7.74-3.24,10.67,10.67,0,0,1-3.15-7.76,10.35,10.35,0,0,1,3.15-7.66A10.57,10.57,0,0,1,138.23,101.87Z"/><path class="cls-1" d="M112.76,101.87a10.93,10.93,0,0,1,7.83,3.12,10.2,10.2,0,0,1,3.27,7.66,10.51,10.51,0,0,1-3.27,7.76,10.72,10.72,0,0,1-7.83,3.24,10.41,10.41,0,0,1-7.74-3.24,10.67,10.67,0,0,1-3.15-7.76A10.35,10.35,0,0,1,105,105,10.61,10.61,0,0,1,112.76,101.87Z"/><path class="cls-1" d="M87.29,101.87A11,11,0,0,1,95.13,105a10.23,10.23,0,0,1,3.26,7.66,10.54,10.54,0,0,1-3.26,7.76,10.74,10.74,0,0,1-7.84,3.24,10.41,10.41,0,0,1-7.74-3.24,10.71,10.71,0,0,1-3.15-7.76A10.39,10.39,0,0,1,79.55,105,10.61,10.61,0,0,1,87.29,101.87Z"/><path class="cls-1" d="M61.82,101.87A11,11,0,0,1,69.66,105a10.23,10.23,0,0,1,3.26,7.66,10.54,10.54,0,0,1-3.26,7.76,10.74,10.74,0,0,1-7.84,3.24,10.41,10.41,0,0,1-7.74-3.24,10.7,10.7,0,0,1-3.14-7.76A10.38,10.38,0,0,1,54.08,105,10.61,10.61,0,0,1,61.82,101.87Z"/><path class="cls-1" d="M36.36,101.87A10.94,10.94,0,0,1,44.19,105a10.19,10.19,0,0,1,3.26,7.66,10.5,10.5,0,0,1-3.26,7.76,10.73,10.73,0,0,1-7.83,3.24,10.37,10.37,0,0,1-7.74-3.24,10.67,10.67,0,0,1-3.15-7.76A10.35,10.35,0,0,1,28.62,105,10.57,10.57,0,0,1,36.36,101.87Z"/><path class="cls-1" d="M10.89,101.87A10.93,10.93,0,0,1,18.72,105,10.2,10.2,0,0,1,22,112.65a10.51,10.51,0,0,1-3.27,7.76,10.72,10.72,0,0,1-7.83,3.24,10.41,10.41,0,0,1-7.74-3.24A10.67,10.67,0,0,1,0,112.65,10.35,10.35,0,0,1,3.15,105,10.61,10.61,0,0,1,10.89,101.87Z"/><path class="cls-1" d="M189.16,76.4A11,11,0,0,1,197,79.53a10.21,10.21,0,0,1,3.26,7.66A10.53,10.53,0,0,1,197,94.94a10.74,10.74,0,0,1-7.84,3.24,10.41,10.41,0,0,1-7.74-3.24,10.71,10.71,0,0,1-3.15-7.75,10.37,10.37,0,0,1,3.15-7.66A10.61,10.61,0,0,1,189.16,76.4Z"/><path class="cls-1" d="M163.69,76.4a11,11,0,0,1,7.84,3.13,10.21,10.21,0,0,1,3.26,7.66,10.53,10.53,0,0,1-3.26,7.75,10.74,10.74,0,0,1-7.84,3.24A10.41,10.41,0,0,1,156,94.94a10.7,10.7,0,0,1-3.14-7.75A10.37,10.37,0,0,1,156,79.53,10.61,10.61,0,0,1,163.69,76.4Z"/><path class="cls-1" d="M138.23,76.4a11,11,0,0,1,7.83,3.13,10.18,10.18,0,0,1,3.26,7.66,10.5,10.5,0,0,1-3.26,7.75,10.73,10.73,0,0,1-7.83,3.24,10.37,10.37,0,0,1-7.74-3.24,10.67,10.67,0,0,1-3.15-7.75,10.34,10.34,0,0,1,3.15-7.66A10.58,10.58,0,0,1,138.23,76.4Z"/><path class="cls-1" d="M112.76,76.4a10.94,10.94,0,0,1,7.83,3.13,10.19,10.19,0,0,1,3.27,7.66,10.51,10.51,0,0,1-3.27,7.75,10.72,10.72,0,0,1-7.83,3.24A10.41,10.41,0,0,1,105,94.94a10.67,10.67,0,0,1-3.15-7.75A10.34,10.34,0,0,1,105,79.53,10.61,10.61,0,0,1,112.76,76.4Z"/><path class="cls-1" d="M87.29,76.4a11,11,0,0,1,7.84,3.13,10.21,10.21,0,0,1,3.26,7.66,10.53,10.53,0,0,1-3.26,7.75,10.74,10.74,0,0,1-7.84,3.24,10.41,10.41,0,0,1-7.74-3.24,10.71,10.71,0,0,1-3.15-7.75,10.37,10.37,0,0,1,3.15-7.66A10.61,10.61,0,0,1,87.29,76.4Z"/><path class="cls-1" d="M61.82,76.4a11,11,0,0,1,7.84,3.13,10.21,10.21,0,0,1,3.26,7.66,10.53,10.53,0,0,1-3.26,7.75,10.74,10.74,0,0,1-7.84,3.24,10.41,10.41,0,0,1-7.74-3.24,10.7,10.7,0,0,1-3.14-7.75,10.37,10.37,0,0,1,3.14-7.66A10.61,10.61,0,0,1,61.82,76.4Z"/><path class="cls-1" d="M36.36,76.4a11,11,0,0,1,7.83,3.13,10.18,10.18,0,0,1,3.26,7.66,10.5,10.5,0,0,1-3.26,7.75,10.73,10.73,0,0,1-7.83,3.24,10.37,10.37,0,0,1-7.74-3.24,10.67,10.67,0,0,1-3.15-7.75,10.34,10.34,0,0,1,3.15-7.66A10.58,10.58,0,0,1,36.36,76.4Z"/><path class="cls-1" d="M163.69,50.94a11,11,0,0,1,7.84,3.12,10.23,10.23,0,0,1,3.26,7.66,10.52,10.52,0,0,1-3.26,7.75,10.74,10.74,0,0,1-7.84,3.24A10.41,10.41,0,0,1,156,69.47a10.68,10.68,0,0,1-3.14-7.75A10.38,10.38,0,0,1,156,54.06,10.61,10.61,0,0,1,163.69,50.94Z"/><path class="cls-1" d="M138.23,50.94a10.94,10.94,0,0,1,7.83,3.12,10.19,10.19,0,0,1,3.26,7.66,10.48,10.48,0,0,1-3.26,7.75,10.73,10.73,0,0,1-7.83,3.24,10.37,10.37,0,0,1-7.74-3.24,10.65,10.65,0,0,1-3.15-7.75,10.35,10.35,0,0,1,3.15-7.66A10.57,10.57,0,0,1,138.23,50.94Z"/><path class="cls-1" d="M112.76,50.94a10.93,10.93,0,0,1,7.83,3.12,10.2,10.2,0,0,1,3.27,7.66,10.49,10.49,0,0,1-3.27,7.75,10.72,10.72,0,0,1-7.83,3.24A10.41,10.41,0,0,1,105,69.47a10.65,10.65,0,0,1-3.15-7.75A10.35,10.35,0,0,1,105,54.06,10.61,10.61,0,0,1,112.76,50.94Z"/><path class="cls-1" d="M87.29,50.94a11,11,0,0,1,7.84,3.12,10.23,10.23,0,0,1,3.26,7.66,10.52,10.52,0,0,1-3.26,7.75,10.74,10.74,0,0,1-7.84,3.24,10.41,10.41,0,0,1-7.74-3.24,10.69,10.69,0,0,1-3.15-7.75,10.39,10.39,0,0,1,3.15-7.66A10.61,10.61,0,0,1,87.29,50.94Z"/><path class="cls-1" d="M61.82,50.94a11,11,0,0,1,7.84,3.12,10.23,10.23,0,0,1,3.26,7.66,10.52,10.52,0,0,1-3.26,7.75,10.74,10.74,0,0,1-7.84,3.24,10.41,10.41,0,0,1-7.74-3.24,10.68,10.68,0,0,1-3.14-7.75,10.38,10.38,0,0,1,3.14-7.66A10.61,10.61,0,0,1,61.82,50.94Z"/><path class="cls-1" d="M138.23,25.47a10.94,10.94,0,0,1,7.83,3.12,10.19,10.19,0,0,1,3.26,7.66A10.5,10.5,0,0,1,146.06,44a10.76,10.76,0,0,1-7.83,3.23A10.4,10.4,0,0,1,130.49,44a10.67,10.67,0,0,1-3.15-7.76,10.35,10.35,0,0,1,3.15-7.66A10.57,10.57,0,0,1,138.23,25.47Z"/><path class="cls-1" d="M112.76,25.47a10.93,10.93,0,0,1,7.83,3.12,10.2,10.2,0,0,1,3.27,7.66A10.51,10.51,0,0,1,120.59,44a10.75,10.75,0,0,1-7.83,3.23A10.43,10.43,0,0,1,105,44a10.67,10.67,0,0,1-3.15-7.76A10.35,10.35,0,0,1,105,28.59,10.61,10.61,0,0,1,112.76,25.47Z"/><path class="cls-1" d="M87.29,25.47a11,11,0,0,1,7.84,3.12,10.23,10.23,0,0,1,3.26,7.66A10.54,10.54,0,0,1,95.13,44a10.77,10.77,0,0,1-7.84,3.23A10.43,10.43,0,0,1,79.55,44a10.71,10.71,0,0,1-3.15-7.76,10.39,10.39,0,0,1,3.15-7.66A10.61,10.61,0,0,1,87.29,25.47Z"/><path class="cls-1" d="M112.76,0a10.93,10.93,0,0,1,7.83,3.12,10.2,10.2,0,0,1,3.27,7.66,10.51,10.51,0,0,1-3.27,7.76,10.72,10.72,0,0,1-7.83,3.24A10.41,10.41,0,0,1,105,18.54a10.67,10.67,0,0,1-3.15-7.76A10.35,10.35,0,0,1,105,3.12,10.61,10.61,0,0,1,112.76,0Z"/></svg>